<?xml version="1.0" encoding="UTF-8" standalone="no"?>
<!-- Created with Inkscape (http://www.inkscape.org/) -->

<svg
   width="5.4699998in"
   height="11.035in"
   viewBox="0 0 138.93798 280.28899"
   version="1.1"
   id="svg5"
   inkscape:version="1.1.2 (b8e25be833, 2022-02-05)"
   sodipodi:docname="dt-equip-icon.svg"
   inkscape:export-filename="C:\Users\JUMIA-3243\Documents\1-Lanre\2-Me\LANRE\0-WEBSITES-APP\BUILT\wordpress\dtstore\dt-store-2.png"
   inkscape:export-xdpi="300"
   inkscape:export-ydpi="300"
   xmlns:inkscape="http://www.inkscape.org/namespaces/inkscape"
   xmlns:sodipodi="http://sodipodi.sourceforge.net/DTD/sodipodi-0.dtd"
   xmlns="http://www.w3.org/2000/svg"
   xmlns:svg="http://www.w3.org/2000/svg">
  <sodipodi:namedview
     id="namedview7"
     pagecolor="#ffffff"
     bordercolor="#999999"
     borderopacity="1"
     inkscape:pageshadow="0"
     inkscape:pageopacity="0"
     inkscape:pagecheckerboard="0"
     inkscape:document-units="px"
     showgrid="false"
     inkscape:zoom="0.125"
     inkscape:cx="2700"
     inkscape:cy="524"
     inkscape:window-width="1920"
     inkscape:window-height="991"
     inkscape:window-x="-9"
     inkscape:window-y="-9"
     inkscape:window-maximized="1"
     inkscape:current-layer="g11676"
     units="in"
     width="5.47in"
     inkscape:snap-global="false"
     height="11.035in" />
  <defs
     id="defs2" />
  <g
     inkscape:label="Layer 1"
     inkscape:groupmode="layer"
     id="layer1">
    <g
       id="g6501"
       transform="translate(-0.77929138,-67.981613)">
      <g
         id="g11676">
        <g
           id="g1101"
           transform="translate(-2.3020492,-12.255492)"
           inkscape:export-filename="C:\Users\JUMIA-3243\Documents\1-Lanre\2-Me\LANRE\0-WEBSITES-APP\BUILT\nextjs\dt-equip\public\dt-equip.png"
           inkscape:export-xdpi="300"
           inkscape:export-ydpi="300">
          <path
             d="m 72.261831,80.235607 c -25.599767,5.48e-4 -46.352324,20.753113 -46.352851,46.352873 -5.48e-4,25.60051 20.752319,46.35429 46.352851,46.35483 25.601327,5.5e-4 46.355399,-20.75353 46.354859,-46.35483 -5.5e-4,-25.60054 -20.754328,-46.35343 -46.354859,-46.352873 z"
             style="fill:#4169e1;fill-opacity:1;stroke-width:0.199958"
             id="path4406" />
          <path
             id="path1045"
             style="fill:#4169e1;fill-opacity:1;stroke-width:0.755747"
             d="m 72.550351,190.73062 c -32.455872,0 -61.288556,13.11106 -68.1160214,30.97574 -1.4653423,3.83393 -1.5534303,5.15368 -1.1447394,17.00401 0.7249951,21.01835 3.8243157,40.67378 9.5732268,60.71074 7.700905,26.84038 17.916721,47.52777 26.563498,53.79156 4.004366,2.90066 13.562349,5.90037 21.410385,6.71923 18.261122,1.90546 36.766868,-0.87228 44.85737,-6.73297 8.62685,-6.24926 18.85222,-26.96268 26.54585,-53.77782 5.74896,-20.03696 8.84625,-39.69239 9.5712,-60.71074 0.40879,-11.85033 0.32017,-13.17008 -1.1447,-17.00401 -6.82741,-17.86468 -35.66017,-30.97574 -68.116069,-30.97574 z"
             sodipodi:nodetypes="sccsssssscs" />
        </g>
      </g>
    </g>
  </g>
</svg>
