<?xml version="1.0" encoding="UTF-8" standalone="no"?>
<!-- Created with Inkscape (http://www.inkscape.org/) -->

<svg
   width="23.211in"
   height="23.211in"
   viewBox="0 0 589.55936 589.5594"
   version="1.1"
   id="svg5"
   inkscape:version="1.1.2 (b8e25be833, 2022-02-05)"
   sodipodi:docname="dtstore-icon.svg"
   inkscape:export-filename="C:\Users\JUMIA-3243\Documents\1-Lanre\2-Me\LANRE\0-WEBSITES-APP\BUILT\wordpress\dtstore\dtstoreicon.png"
   inkscape:export-xdpi="300"
   inkscape:export-ydpi="300"
   xmlns:inkscape="http://www.inkscape.org/namespaces/inkscape"
   xmlns:sodipodi="http://sodipodi.sourceforge.net/DTD/sodipodi-0.dtd"
   xmlns="http://www.w3.org/2000/svg"
   xmlns:svg="http://www.w3.org/2000/svg">
  <sodipodi:namedview
     id="namedview7"
     pagecolor="#ffffff"
     bordercolor="#999999"
     borderopacity="1"
     inkscape:pageshadow="0"
     inkscape:pageopacity="0"
     inkscape:pagecheckerboard="0"
     inkscape:document-units="px"
     showgrid="false"
     inkscape:zoom="0.12201654"
     inkscape:cx="1372.7647"
     inkscape:cy="881.02808"
     inkscape:window-width="1920"
     inkscape:window-height="991"
     inkscape:window-x="-9"
     inkscape:window-y="-9"
     inkscape:window-maximized="1"
     inkscape:current-layer="g6501"
     units="in"
     width="23.211in"
     inkscape:snap-global="false"
     height="23.211in" />
  <defs
     id="defs2" />
  <g
     inkscape:label="Layer 1"
     inkscape:groupmode="layer"
     id="layer1">
    <g
       id="g6501"
       transform="translate(-0.77929138,-67.981613)">
      <circle
         style="fill:#0071dc;fill-opacity:1;stroke-width:0.446187"
         id="path7493"
         cx="295.55896"
         cy="362.76129"
         r="294.77802" />
      <g
         id="g1312"
         transform="matrix(1.0336061,0,0,1.0336061,103.3419,162.91598)"
         style="fill:#ffffff;fill-opacity:1">
        <g
           id="g1007"
           transform="translate(-67.035834,13.092936)"
           style="fill:#ffffff;fill-opacity:1">
          <path
             d="m 148.51282,44.665354 c -24.76743,5.3e-4 -44.84525,20.078353 -44.84576,44.845782 -5.3e-4,24.768144 20.07759,44.847154 44.84576,44.847674 24.76894,5.3e-4 44.84823,-20.07876 44.8477,-44.847674 -5.3e-4,-24.768175 -20.07953,-44.846321 -44.8477,-44.845782 z"
             style="fill:#ffffff;fill-opacity:1;stroke-width:0.193457"
             id="path4406" />
          <path
             id="path1045"
             style="fill:#ffffff;fill-opacity:1;stroke-width:0.731175"
             d="m 148.79196,151.56779 c -31.40062,0 -59.295854,12.68478 -65.901335,29.96861 -1.417699,3.70928 -1.502923,4.98612 -1.10752,16.45116 0.701423,20.33497 3.699974,39.35133 9.261968,58.73682 7.450522,25.96771 17.334187,45.98248 25.699827,52.04261 3.87417,2.80635 13.12139,5.70853 20.71426,6.50077 17.66739,1.8435 35.57145,-0.84392 43.3989,-6.51406 8.34636,-6.04608 18.23927,-26.08603 25.68275,-52.02932 5.56205,-19.38549 8.55863,-38.40185 9.26001,-58.73682 0.3955,-11.46504 0.30976,-12.74188 -1.10748,-16.45116 -6.60543,-17.28383 -34.50073,-29.96861 -65.90138,-29.96861 z"
             sodipodi:nodetypes="sccsssssscs" />
        </g>
        <path
           style="fill:#ffffff;fill-opacity:1;stroke-width:0.411656"
           d="m 224.73722,328.74837 c -9.00755,-1.07657 -16.79177,-7.99105 -18.91113,-16.79812 -3.25175,-13.5128 7.55565,-26.82537 21.74807,-26.78932 7.42518,0.0188 14.62446,3.96983 18.86859,10.35507 5.49744,8.27085 4.14907,19.80781 -3.15094,26.96014 -4.81798,4.72051 -11.7974,7.07985 -18.55459,6.27223 z m 91.71158,0.11521 c -5.41897,-0.45956 -10.43369,-2.71837 -14.17679,-6.38575 -7.307,-7.15917 -8.64729,-18.65093 -3.14762,-26.98785 5.0895,-7.71515 14.13667,-11.62918 23.01532,-9.95702 10.29759,1.93942 18.24328,11.33638 18.21625,21.54349 -0.0328,12.40703 -11.48192,22.84083 -23.90716,21.78713 z m -91.0785,-53.75456 c -9.21334,-1.93732 -17.03083,-7.69677 -21.1451,-15.57842 -2.48342,-4.75745 -2.79668,-5.8552 -5.47834,-19.1974 -1.28374,-6.38709 -5.11488,-25.08997 -8.51365,-41.56195 -3.39877,-16.47197 -7.23519,-35.35821 -8.52538,-41.96941 -1.29019,-6.6112 -2.4477,-12.43293 -2.57226,-12.93718 l -0.22646,-0.91681 -12.32746,-0.002 c -11.50615,-0.001 -12.41644,-0.0547 -13.66307,-0.79941 -2.49743,-1.49195 -2.48133,-4.86758 0.032,-6.70607 1.11988,-0.8192 1.62467,-0.84613 15.85958,-0.84613 14.30404,0 14.73471,0.0232 15.87675,0.85871 0.64565,0.47229 1.39612,1.48078 1.66772,2.24108 0.27161,0.76032 1.46864,6.37899 2.66007,12.48594 l 2.16625,11.10357 h 81.77603 c 89.95175,0 82.85046,-0.2039 84.23456,2.41851 0.55265,1.04708 0.19472,4.31987 -4.12231,37.6939 -4.96155,38.35676 -4.79584,37.43398 -6.92256,38.54915 -0.57929,0.30375 -24.45219,3.54472 -71.70208,9.73423 -19.4582,2.54894 -60.35623,7.76714 -60.87546,7.76714 -0.97508,0 -0.39768,1.11503 1.50806,2.91228 2.93083,2.76394 5.69294,4.43593 9.43879,5.71358 l 3.34965,1.14253 53.85692,0.008 c 36.50261,0.005 54.36643,0.14627 55.43813,0.43792 1.06249,0.28908 1.84644,0.85643 2.38977,1.72948 1.14417,1.83851 1.0237,3.29501 -0.40181,4.8582 l -1.21348,1.3307 -54.82684,0.0709 c -47.39347,0.0612 -55.22151,-0.0121 -57.738,-0.54125 z m 3.7761,-35.13662 c 2.8074,-1.67732 2.8835,-0.58361 -2.07826,-29.87198 -2.46471,-14.54875 -4.65588,-27.07173 -4.86924,-27.82886 -0.55877,-1.98276 -2.52583,-3.46633 -4.59594,-3.46633 -2.19747,0 -4.50123,2.0838 -4.50123,4.07146 0,1.85078 9.11995,54.60381 9.58808,55.46081 1.24002,2.27012 4.15708,3.00876 6.45659,1.6349 z m 23.55475,-5.31014 c 0.83992,-0.92101 1.15717,-1.69791 1.15717,-2.83363 0,-0.8606 -1.02836,-12.54701 -2.28525,-25.96978 -2.5286,-27.00386 -2.30914,-25.91873 -5.46278,-27.01154 -1.4733,-0.51053 -1.80648,-0.49281 -3.23658,0.17208 -2.68637,1.24898 -2.8987,2.29493 -2.13576,10.521 0.35655,3.84438 1.30102,14.23255 2.09882,23.08485 2.05717,22.82601 1.7396,20.73263 3.3906,22.35023 1.30428,1.2779 1.56802,1.36965 3.3659,1.1711 1.50046,-0.16569 2.21781,-0.5083 3.10788,-1.48431 z m 21.50005,-3.47918 c 2.54491,-1.2894 2.53079,-1.14456 2.53009,-25.95388 -8.4e-4,-25.39064 0.0831,-24.66924 -3.04037,-26.16403 -1.41067,-0.6751 -1.7495,-0.69752 -3.07445,-0.20346 -0.81898,0.3054 -1.88344,1.07271 -2.36548,1.70511 -0.86305,1.13227 -0.87837,1.49644 -1.0024,23.83672 -0.0874,15.7327 0.0154,23.16123 0.33457,24.23439 0.79355,2.6666 3.96845,3.88758 6.61804,2.54515 z m 23.09194,-4.75736 c 0.61977,-0.47766 1.29763,-1.30857 1.50636,-1.84645 0.20874,-0.53791 0.94669,-6.1522 1.63991,-12.4762 0.69323,-6.32401 1.72328,-15.4786 2.28904,-20.34353 1.09262,-9.39554 1.04632,-10.18185 -0.70756,-12.01638 -1.17051,-1.22434 -2.86267,-1.51373 -4.62729,-0.79135 -1.95707,0.80118 -2.76269,2.12443 -3.17864,5.22098 -1.36311,10.14805 -4.27025,39.04535 -4.0239,39.99821 0.75109,2.90525 4.65133,4.14347 7.10208,2.25472 z m 21.68151,-3.80371 c 1.07516,-0.44014 1.65799,-1.05699 2.21371,-2.34295 0.41488,-0.96003 2.78701,-9.64576 5.27142,-19.30162 3.97931,-15.46588 4.46925,-17.74438 4.11515,-19.13738 -1.0438,-4.10628 -7.04994,-4.53403 -8.58047,-0.6111 -0.83066,2.1291 -9.49655,36.20748 -9.49655,37.34496 0,1.87213 1.44937,3.63488 3.53501,4.29931 1.25912,0.40114 1.37166,0.39153 2.94173,-0.25122 z"
           id="path1208" />
      </g>
    </g>
  </g>
</svg>
